<?xml version="1.0" standalone="no"?>
<!DOCTYPE svg PUBLIC "-//W3C//DTD SVG 20010904//EN"
 "http://www.w3.org/TR/2001/REC-SVG-20010904/DTD/svg10.dtd">
<svg version="1.0" xmlns="http://www.w3.org/2000/svg"
 width="1920.000000pt" height="1920.000000pt" viewBox="0 0 1920.000000 1920.000000"
 preserveAspectRatio="xMidYMid meet">
<metadata>
Created by potrace 1.14, written by Peter Selinger 2001-2017
</metadata>
<g transform="translate(0.000000,1920.000000) scale(0.100000,-0.100000)"
fill="#000000" stroke="none">
<path d="M0 9600 l0 -9600 9600 0 9600 0 0 9600 0 9600 -9600 0 -9600 0 0
-9600z m5938 4359 c62 -7 111 -14 109 -16 -2 -2 -92 2 -199 8 -390 24 -774
-26 -1060 -136 -436 -169 -733 -471 -867 -883 -71 -216 -98 -520 -72 -788 81
-805 574 -1778 1384 -2729 350 -411 894 -948 1348 -1331 777 -656 1554 -1198
2369 -1653 255 -143 771 -397 1024 -504 1233 -526 2308 -712 3114 -542 354 75
617 209 833 424 210 210 326 447 374 766 8 55 15 127 16 160 1 33 5 71 10 85
16 46 -2 -271 -22 -389 -162 -952 -1115 -1377 -2579 -1150 -1028 159 -2222
635 -3405 1357 -196 119 -662 430 -834 555 l-143 105 -102 7 c-421 29 -800
179 -1052 417 -111 106 -173 190 -239 323 -69 139 -105 272 -112 420 l-6 110
-176 180 c-711 728 -1210 1393 -1560 2080 -225 441 -361 845 -422 1260 -18
119 -18 495 -1 595 62 348 182 593 393 802 281 278 686 437 1224 482 93 7 539
-3 653 -15z m175 -26 c-7 -2 -21 -2 -30 0 -10 3 -4 5 12 5 17 0 24 -2 18 -5z
m-65 -228 c957 -99 2145 -536 3297 -1215 77 -45 154 -90 171 -100 42 -24 273
-169 304 -190 14 -10 72 -48 130 -86 132 -85 420 -284 420 -289 0 -2 -64 38
-142 89 -1123 733 -2290 1239 -3224 1395 -416 69 -831 70 -1118 2 -346 -83
-609 -270 -741 -529 -135 -265 -155 -592 -60 -985 252 -1046 1310 -2410 2775
-3578 1909 -1521 4051 -2383 5300 -2133 534 107 867 453 897 932 3 50 9 92 14
92 12 0 22 -207 16 -330 -36 -681 -478 -1113 -1243 -1215 -233 -31 -569 -29
-819 6 -38 5 -88 12 -110 15 -580 78 -1311 307 -2055 644 -271 122 -666 325
-982 504 -329 186 -887 546 -1191 769 -76 56 -151 111 -167 122 -46 32 -265
201 -374 289 -875 700 -1662 1516 -2198 2281 -492 701 -791 1358 -874 1920
-23 160 -24 425 0 555 46 254 152 464 318 627 122 121 210 182 359 252 160 75
387 136 594 159 135 16 541 14 703 -3z m4383 -1922 c13 -16 12 -17 -3 -4 -17
13 -22 21 -14 21 2 0 10 -8 17 -17z m-2696 -452 c232 -47 475 -145 632 -257
88 -62 222 -192 283 -275 129 -172 205 -396 212 -624 l3 -80 -475 0 -475 0 -6
50 c-17 142 -135 253 -319 302 -100 27 -301 24 -403 -5 -264 -75 -399 -251
-343 -446 50 -170 225 -244 721 -301 514 -60 763 -122 968 -243 276 -163 416
-404 449 -774 21 -224 -11 -425 -97 -605 -46 -97 -128 -223 -146 -223 -18 0
-440 306 -659 479 -52 41 -97 76 -98 77 -2 1 5 28 17 59 12 31 21 75 21 98 -1
158 -187 272 -504 309 l-99 12 -146 137 c-316 295 -636 631 -884 929 -123 148
-353 448 -411 537 l-27 41 31 74 c47 114 124 223 234 334 150 149 331 259 552
332 215 72 360 91 639 88 178 -3 241 -8 330 -25z m4285 -108 l0 -77 -612
-1095 c-336 -603 -696 -1247 -799 -1431 l-188 -335 807 -5 807 -5 3 -447 2
-448 -1286 0 -1287 0 -36 22 c-213 129 -424 264 -428 274 -2 7 139 270 315
586 850 1527 1173 2108 1178 2122 6 14 -63 16 -715 16 l-721 0 0 450 0 450
1480 0 1480 0 0 -77z m2223 54 c222 -45 432 -132 582 -244 248 -185 425 -460
502 -783 37 -155 43 -418 15 -585 -35 -202 -109 -392 -220 -560 -47 -70 -209
-242 -291 -306 l-44 -35 228 -369 c126 -204 297 -482 382 -618 l153 -248 0
-74 0 -75 -562 2 -563 3 -333 573 -334 572 -259 0 -259 0 0 -575 0 -575 -502
2 -503 3 -3 1945 c-1 1070 0 1951 3 1958 4 10 186 12 962 9 862 -3 967 -5
1046 -20z"/>
<path d="M13240 9910 l0 -490 353 0 c386 0 453 6 533 45 295 144 330 679 56
867 -94 65 -120 68 -553 68 l-389 0 0 -490z"/>
</g>
</svg>
